<svg xmlns="http://www.w3.org/2000/svg" viewBox="0 0 512 512" width="512" height="512">
<title>Deckhand icon</title>
<rect width="512" height="512" rx="96" fill="#0f204b"/>
<svg x="76" y="58" width="360" height="397" viewBox="12 -8 196 216">
<circle cx="40" cy="14" r="3.6" fill="#ffb612"/>
<circle cx="58" cy="10" r="3.6" fill="#ffb612"/>
<circle cx="74" cy="16" r="3.6" fill="#ffb612"/>
<circle cx="90" cy="22" r="3.6" fill="#ffb612"/>
<circle cx="94" cy="40" r="3.6" fill="#ffb612"/>
<circle cx="116" cy="42" r="3.6" fill="#ffb612"/>
<circle cx="118" cy="24" r="3.6" fill="#ffb612"/>
<path d="M176 -2 L179 7 L188 10 L179 13 L176 22 L173 13 L164 10 L173 7 Z" fill="#ffb612"/>
<g transform="translate(0 34)">
<path d="M52 78 Q118 28 196 78 Q118 128 52 78 Z" fill="#ffffff"/>
<path d="M64 78 L22 46 L36 78 L22 110 Z" fill="#ffffff"/>
<circle cx="166" cy="70" r="4.5" fill="#0f204b"/>
<path d="M24 106 L28 105 L55 153 L51 155 Z" fill="#ffb612"/>
<g transform="translate(70 148) rotate(-20)">
<path d="M-28 -6 L-18 -17 L28 -17 L28 17 L-18 17 L-28 6 Z" fill="#ffb612"/>
<circle cx="-16" cy="0" r="3.5" fill="#0f204b"/>
</g>
</g>
</svg>
</svg>
